<svg width="64" height="64" viewBox="0 0 64 64" fill="none" xmlns="http://www.w3.org/2000/svg">
<rect x="0.5" y="0.5" width="63" height="63" rx="14.5" fill="white" stroke="#E8E6EA"/>
<path fill-rule="evenodd" clip-rule="evenodd" d="M44.4544 18H19.5456C18.6921 18.0003 18.0003 18.6921 18 19.5456V44.4544C18.0003 45.3079 18.6921 45.9997 19.5456 46H32V35H28.6531V31H32V27.8125C32 24.1962 34.5081 22.2275 37.7388 22.2275C39.2844 22.2275 40.9469 22.3438 41.3331 22.395V26.1719H38.7594C37.0019 26.1719 36.6669 27.0031 36.6669 28.2281V31H40.8544L40.3075 35H36.6669V46H44.4544C45.3079 45.9997 45.9997 45.3079 46 44.4544V19.5456C45.9997 18.6921 45.3079 18.0003 44.4544 18Z" fill="#E94057"/>
</svg>
