<svg width="295" height="18" viewBox="0 0 295 18" fill="none" xmlns="http://www.w3.org/2000/svg">
<rect x="201" y="10" width="94" height="0.5" fill="black" fill-opacity="0.4"/>
<path d="M112.342 14.12C114.154 14.12 115.354 12.872 115.354 11C115.354 9.128 114.154 7.88 112.342 7.88C110.53 7.88 109.33 9.128 109.33 11C109.33 12.872 110.53 14.12 112.342 14.12ZM112.342 13.28C111.106 13.28 110.29 12.368 110.29 11C110.29 9.632 111.106 8.72 112.342 8.72C113.578 8.72 114.394 9.632 114.394 11C114.394 12.368 113.578 13.28 112.342 13.28ZM116.392 14H117.352V10.496C117.352 9.428 118.072 8.72 119.152 8.72H119.56V8C119.44 7.928 119.248 7.88 119.068 7.88C118.396 7.88 117.844 8.18 117.352 8.828V8H116.392V14ZM125.107 14.12C126.655 14.12 127.687 13.376 127.687 12.272C127.687 11.252 127.099 10.808 125.251 10.424C124.171 10.16 123.835 9.944 123.835 9.536C123.835 9.044 124.339 8.72 125.107 8.72C125.803 8.72 126.391 9.08 126.571 9.62L127.447 9.404C127.123 8.492 126.187 7.88 125.107 7.88C123.763 7.88 122.875 8.576 122.875 9.608C122.875 10.52 123.391 10.916 125.047 11.288C126.403 11.6 126.739 11.816 126.739 12.32C126.739 12.896 126.091 13.28 125.107 13.28C124.099 13.28 123.415 12.752 123.391 11.96H122.491C122.515 13.256 123.559 14.12 125.107 14.12ZM128.603 7.088H129.563V5.768H128.603V7.088ZM128.603 14H129.563V8H128.603V14ZM133.669 16.352C135.553 16.352 136.621 15.272 136.621 13.352V8H135.661V8.96C135.217 8.312 134.389 7.88 133.585 7.88C131.869 7.88 130.717 9.104 130.717 10.94C130.717 12.776 131.869 14 133.585 14C134.401 14 135.229 13.568 135.661 12.932V13.352C135.661 14.732 134.941 15.512 133.669 15.512C132.721 15.512 132.037 15.008 131.785 14.12H130.801C131.125 15.548 132.157 16.352 133.669 16.352ZM133.681 13.16C132.481 13.16 131.677 12.272 131.677 10.94C131.677 9.608 132.481 8.72 133.681 8.72C134.869 8.72 135.661 9.608 135.661 10.94C135.661 12.272 134.869 13.16 133.681 13.16ZM138.06 14H139.02V10.448C139.02 9.416 139.704 8.72 140.724 8.72C141.744 8.72 142.428 9.416 142.428 10.448V14H143.388V10.28C143.388 8.84 142.392 7.88 140.892 7.88C140.196 7.88 139.44 8.24 139.02 8.768V8H138.06V14ZM153.021 8H152.061V11.552C152.061 12.584 151.377 13.28 150.357 13.28C149.337 13.28 148.653 12.584 148.653 11.552V8H147.693V11.72C147.693 13.16 148.689 14.12 150.189 14.12C150.885 14.12 151.641 13.76 152.061 13.232V14H153.021V8ZM154.466 16.232H155.426V12.98C155.894 13.664 156.77 14.12 157.622 14.12C159.398 14.12 160.586 12.872 160.586 11C160.586 9.128 159.398 7.88 157.622 7.88C156.77 7.88 155.894 8.336 155.426 9.02V8H154.466V16.232ZM157.526 13.28C156.266 13.28 155.426 12.368 155.426 11C155.426 9.632 156.266 8.72 157.526 8.72C158.786 8.72 159.626 9.632 159.626 11C159.626 12.368 158.786 13.28 157.526 13.28ZM165.637 14H166.621L167.881 9.332L169.141 14H170.125L172.189 8H171.181L169.657 12.908L168.325 8H167.449L166.105 12.908L164.581 8H163.573L165.637 14ZM173.193 7.088H174.153V5.768H173.193V7.088ZM173.193 14H174.153V8H173.193V14ZM177.983 14.12C178.271 14.12 178.667 14.072 178.967 14V13.28H177.923C177.467 13.28 177.155 12.956 177.155 12.464V8.84H178.907V8H177.155V5.768H176.195V8H175.235V8.84H176.195V12.464C176.195 13.46 176.915 14.12 177.983 14.12ZM180.048 14H181.008V10.448C181.008 9.416 181.692 8.72 182.712 8.72C183.732 8.72 184.416 9.416 184.416 10.448V14H185.376V10.28C185.376 8.84 184.38 7.88 182.88 7.88C182.184 7.88 181.428 8.24 181.008 8.768V5.768H180.048V14Z" fill="#323755"/>
<rect y="10" width="94" height="0.5" fill="black" fill-opacity="0.4"/>
</svg>
